<?xml version="1.0" encoding="utf-8"?>
<!-- Generator: Adobe Illustrator 26.2.1, SVG Export Plug-In . SVG Version: 6.00 Build 0)  -->
<svg version="1.1" id="Layer_1" xmlns="http://www.w3.org/2000/svg" xmlns:xlink="http://www.w3.org/1999/xlink" x="0px" y="0px"
	 viewBox="0 0 576 512" style="enable-background:new 0 0 576 512;" xml:space="preserve">
<path d="M32,96c0-17.7,14.3-32,32-32h224c17.7,0,32,14.3,32,32s-14.3,32-32,32H64C46.3,128,32,113.7,32,96z"/>
<path d="M32,256c0-17.7,14.3-32,32-32h224c17.7,0,32,14.3,32,32s-14.3,32-32,32H64C46.3,288,32,273.7,32,256z"/>
<path d="M33,416c0-17.7,14.3-32,32-32h288c17.7,0,32,14.3,32,32s-14.3,32-32,32H65C47.3,448,33,433.7,33,416z"/>
<g>
	<path d="M538.1,38.2c9.9,8.9,10.7,24,1.8,33.9l-72,80c-4.4,4.9-10.6,7.8-17.2,7.9s-12.9-2.4-17.6-7L393,113
		c-9.4-9.4-9.4-24.6,0-33.9s24.6-9.4,33.9,0l22.1,22.1L504.1,40C513,30.1,528.1,29.3,538.1,38.2L538.1,38.2z"/>
	<path d="M538.1,198.2c9.9,8.9,10.7,24,1.8,33.9l-72,80c-4.4,4.9-10.6,7.8-17.2,7.9s-12.9-2.4-17.6-7L393,273
		c-9.4-9.4-9.4-24.6,0-33.9s24.6-9.4,33.9,0l22.1,22.1l55.1-61.2C513,190.1,528.1,189.3,538.1,198.2L538.1,198.2z"/>
	<circle cx="499" cy="416" r="48"/>
</g>
</svg>
